# xmcd
#
# Track frame offsets:
#	150
#	17693
#	36232
#	47198
#	63980
#
# Disc length: 934 seconds
# Revision: 0
# Processed by: cddbd v1.5.2PL0 Copyright (c) Steve Scherf et al.
# Submitted via: dBpowerAMP V12.0
#
DISCID=3c03a405
DTITLE=Jimi Beavis - Stripped
DYEAR=2013
DGENRE=Blues
TTITLE0=Tell Everyone I Know
TTITLE1=Found No Peace At All
TTITLE2=You're Frisky When You're Sloppy Drunk
TTITLE3=I'm Sorry
TTITLE4=Son, I Want To Tell You About Your Mother
EXTD=
EXTT0=
EXTT1=
EXTT2=
EXTT3=
EXTT4=
PLAYORDER=
